# xmcd
#
# Track frame offsets: 
#        150
#        20053
#        35872
#        54388
#        67037
#        94175
#        110231
#        123668
#        145805
#
# Disc length: 2274 seconds
#
# Revision: 0
# Processed by: cddbd v1.5.2PL0 Copyright (c) Steve Scherf et al.
# Submitted via: ExactAudioCopyFreeDBPlugin 1.0
#
DISCID=8c08e009
DTITLE=Jayati - Brishti Elo
DYEAR=2013
DGENRE=Rabindrasangeet
TTITLE0=Aaji Tomay Aabar
TTITLE1=Gahan Ghana Chhailo
TTITLE2=Aabar Eseche Aashar
TTITLE3=Aashar, Kotha Hote Aaj
TTITLE4=Chhaya Ghanaichhe Bone Bone
TTITLE5=Oi-Je Jhawrer Megh
TTITLE6=Swapno Aamar Mone Holo
TTITLE7=Tomaar Geeti Jagalo Swriti
TTITLE8=Emon Dine Taare Bola Jaay
EXTD=
EXTT0=
EXTT1=
EXTT2=
EXTT3=
EXTT4=
EXTT5=
EXTT6=
EXTT7=
EXTT8=
PLAYORDER=
